# xmcd CD database file
#
# Track frame offsets:
#	150
#	22647
#	42895
#	76007
#	99297
#	123202
#	144732
#	162109
#	184417
#	210272
#	224010
#
# Disc length: 3255 seconds
#
# Revision: 0
# Processed by: cddbd v1.5.2PL0 Copyright (c) Steve Scherf et al.
# Submitted via: CDex 1.51
#
DISCID=860cb50b
DTITLE=Gregor Hilden - Blue in Red
DYEAR=2008
DGENRE=Blues
TTITLE0=Breezin'
TTITLE1=Blue Clouds
TTITLE2=More Today Than Yesterday
TTITLE3=Daydream
TTITLE4=OD-Special Blues
TTITLE5=Zak
TTITLE6=Trading Time
TTITLE7=Way Back Home
TTITLE8=Listen Here
TTITLE9=Blue in Red
TTITLE10=Shades Of Gold
EXTD=YEAR: 2008
EXTT0=
EXTT1=
EXTT2=
EXTT3=
EXTT4=
EXTT5=
EXTT6=
EXTT7=
EXTT8=
EXTT9=
EXTT10=
PLAYORDER=
